<svg id="visual" viewBox="0 0 960 300" width="960" height="300" xmlns="http://www.w3.org/2000/svg" xmlns:xlink="http://www.w3.org/1999/xlink" version="1.1"><rect x="0" y="0" width="960" height="300" fill="#e9c46a"></rect><path d="M0 194L22.8 201C45.7 208 91.3 222 137 230.8C182.7 239.7 228.3 243.3 274 245C319.7 246.7 365.3 246.3 411.2 237.8C457 229.3 503 212.7 548.8 211.8C594.7 211 640.3 226 686 228.7C731.7 231.3 777.3 221.7 823 221.7C868.7 221.7 914.3 231.3 937.2 236.2L960 241L960 301L937.2 301C914.3 301 868.7 301 823 301C777.3 301 731.7 301 686 301C640.3 301 594.7 301 548.8 301C503 301 457 301 411.2 301C365.3 301 319.7 301 274 301C228.3 301 182.7 301 137 301C91.3 301 45.7 301 22.8 301L0 301Z" fill="#e76f51" stroke-linecap="round" stroke-linejoin="miter"></path></svg>